<?xml version="1.0" encoding="UTF-8"?>
<svg width="17px" height="17px" viewBox="0 0 17 17" version="1.1" xmlns="http://www.w3.org/2000/svg" xmlns:xlink="http://www.w3.org/1999/xlink">
    <!-- Generator: Sketch 48.2 (47327) - http://www.bohemiancoding.com/sketch -->
    <title>Group 3</title>
    <desc>Created with Sketch.</desc>
    <defs></defs>
    <g id="Symbols" stroke="none" stroke-width="1" fill="none" fill-rule="evenodd">
        <g id="Group-3" transform="translate(-4.000000, -4.000000)">
            <rect id="Rectangle-3-Copy" x="0" y="0" width="25" height="25"></rect>
            <g id="analytics-copy" transform="translate(4.000000, 4.500000)" fill="#00B3F1" fill-rule="nonzero">
                <path d="M16.6666257,15 L1.3333431,15 C1.14934346,15 1,15.2239722 1,15.4999766 C1,15.7759809 1.14934346,16 1.3333431,16 L16.6666569,16 C16.8506565,16 17,15.7759809 17,15.4999766 C16.9999688,15.2239722 16.8506253,15 16.6666257,15 Z" id="Shape"></path>
                <path d="M7.62499121,8 L5.37500879,8 C5.16801041,8 5,8.14934317 5,8.33334245 L5,15.6666576 C5,15.8506568 5.16801041,16 5.37500879,16 L7.62499121,16 C7.83198959,16 8,15.8506568 8,15.6666576 L8,8.33334245 C8,8.14934317 7.83198959,8 7.62499121,8 Z M7.24998242,15.3333151 L5.74998242,15.3333151 L5.74998242,8.66665365 L7.24998242,8.66665365 L7.24998242,15.3333151 Z" id="Shape"></path>
                <path d="M12.6249912,10 L10.3750088,10 C10.1680104,10 10,10.134409 10,10.3000084 L10,15.6999916 C10,15.865591 10.1680104,16 10.3750088,16 L12.6249912,16 C12.8319896,16 13,15.865591 13,15.6999916 L13,10.3000084 C13,10.1343808 12.8319896,10 12.6249912,10 Z M12.2499824,15.3999831 L10.7499824,15.3999831 L10.7499824,10.5999888 L12.2499824,10.5999888 L12.2499824,15.3999831 Z" id="Shape"></path>
                <path d="M16.6249912,5 L14.3750088,5 C14.1680104,5 14,5.15401044 14,5.34376007 L14,15.6562399 C14,15.8459896 14.1680104,16 14.3750088,16 L16.6249912,16 C16.8319896,16 17,15.8459896 17,15.6562399 L17,5.34376007 C17,5.15397821 16.8319896,5 16.6249912,5 Z M16.2499824,15.3124799 L14.7499824,15.3124799 L14.7499824,5.68748792 L16.2499824,5.68748792 L16.2499824,15.3124799 Z" id="Shape"></path>
                <path d="M1.5,6 C0.672744744,6 0,6.67274474 0,7.5 C0,8.32725526 0.672744744,9 1.5,9 C2.32725526,9 3,8.32725526 3,7.5 C3,6.67274474 2.32725526,6 1.5,6 Z M1.5,8.24998242 C1.08600323,8.24998242 0.750017578,7.91322333 0.750017578,7.5 C0.750017578,7.08674151 1.08600323,6.75001758 1.5,6.75001758 C1.91399677,6.75001758 2.24998242,7.08677667 2.24998242,7.5 C2.24998242,7.91322333 1.91399677,8.24998242 1.5,8.24998242 Z" id="Shape"></path>
                <path d="M4.5,3 C3.67274474,3 3,3.67274474 3,4.5 C3,5.32725526 3.67274474,6 4.5,6 C5.32725526,6 6,5.32725526 6,4.5 C6,3.67274474 5.32725526,3 4.5,3 Z M4.5,5.24998242 C4.08600323,5.24998242 3.75001758,4.91322333 3.75001758,4.5 C3.75001758,4.08674151 4.08600323,3.75001758 4.5,3.75001758 C4.91399677,3.75001758 5.24998242,4.08677667 5.24998242,4.5 C5.24998242,4.91325849 4.91399677,5.24998242 4.5,5.24998242 Z" id="Shape"></path>
                <path d="M9.5,4 C8.67274474,4 8,4.67274474 8,5.5 C8,6.32725526 8.67274474,7 9.5,7 C10.3272553,7 11,6.32725526 11,5.5 C11,4.67274474 10.3272553,4 9.5,4 Z M9.5,6.24998242 C9.08600323,6.24998242 8.75001758,5.91322333 8.75001758,5.5 C8.75001758,5.08674151 9.08600323,4.75001758 9.5,4.75001758 C9.91399677,4.75001758 10.2499824,5.08677667 10.2499824,5.5 C10.2499824,5.91322333 9.91399677,6.24998242 9.5,6.24998242 Z" id="Shape"></path>
                <path d="M13.5,0 C12.6727447,0 12,0.672744744 12,1.5 C12,2.32725526 12.6727447,3 13.5,3 C14.3272553,3 15,2.32725526 15,1.5 C15,0.672744744 14.3272553,0 13.5,0 Z M13.5,2.24998242 C13.0860032,2.24998242 12.7500176,1.91322333 12.7500176,1.5 C12.7500176,1.08674151 13.0860032,0.750017578 13.5,0.750017578 C13.9139968,0.750017578 14.2499824,1.08677667 14.2499824,1.5 C14.2499824,1.91322333 13.9139968,2.24998242 13.5,2.24998242 Z" id="Shape"></path>
                <path d="M11.910083,2.08992132 C11.7901937,1.97002623 11.595287,1.97002623 11.4753977,2.08992132 L10,4 C9.88011067,4.11989509 9.88011067,4.31481108 10,4.43470617 C10.0602617,4.49433669 10.1389391,4.52448338 10.2176453,4.52448338 C10.2957174,4.52448338 10.3744236,4.49497075 10.4346853,4.43470617 L11.910083,2.52462749 C12.0299723,2.4047324 12.0299723,2.20981641 11.910083,2.08992132 Z" id="Shape"></path>
                <path d="M7.74116612,4.48828964 L6,4.48828964 C5.80838535,4.44760319 5.6139327,4.52897609 5.56051165,4.66773547 C5.50638944,4.80649485 5.61606955,4.95046229 5.80481282,4.99009735 L7.54597893,4.99009735 C7.57873272,4.99687027 7.61151989,5 7.64357252,5 C7.79886086,5 7.94129475,4.92540002 7.98616844,4.81065152 C8.04032403,4.67243006 7.93064393,4.5279247 7.74116612,4.48828964 Z" id="Shape"></path>
                <path d="M3.93109408,5.14105872 C3.82293068,4.97927359 3.62544182,4.95304671 3.48959637,5.0811266 L2.11858031,6.33263634 C1.98273486,6.46222594 1.96009395,6.69739018 2.06890592,6.85917531 C2.13116842,6.95204026 2.22299971,7 2.31480152,7 C2.38334333,7 2.45253371,6.97303581 2.51040363,6.91910743 L3.88141969,5.6675977 C4.01726514,5.53800809 4.03990605,5.30284385 3.93109408,5.14105872 Z" id="Shape"></path>
            </g>
        </g>
    </g>
</svg>