<?xml version="1.0" encoding="UTF-8"?>
<svg width="22px" height="22px" viewBox="0 0 22 22" version="1.1" xmlns="http://www.w3.org/2000/svg" xmlns:xlink="http://www.w3.org/1999/xlink">
    <!-- Generator: Sketch 48.2 (47327) - http://www.bohemiancoding.com/sketch -->
    <title>settings-icon copy</title>
    <desc>Created with Sketch.</desc>
    <defs></defs>
    <g id="Company-space" stroke="none" stroke-width="1" fill="none" fill-rule="evenodd" transform="translate(-1063.000000, -157.000000)">
        <g id="Group-4" transform="translate(196.000000, 133.000000)" stroke="#1A404D">
            <g id="edit-icon" transform="translate(866.000000, 22.500000)">
                <g id="Group-12" transform="translate(1.500000, 2.000000)">
                    <path d="M12.7498383,2.15345986 C13.4757484,2.33979159 14.1637351,2.62444551 14.7996064,2.99284634 L16.769103,2.10820895 L18.6280447,3.96715072 L17.7609761,5.89753345 C18.2070733,6.62863426 18.5479984,7.4343215 18.7619781,8.29223356 L20.6062915,8.99325893 L20.6062915,11.6221996 L18.8150587,12.303049 C18.6101623,13.229726 18.2580235,14.0989501 17.7852421,14.8834028 L18.566158,16.621981 L16.7072162,18.4809228 L14.994448,17.7115999 C14.2422661,18.1755593 13.4124789,18.5203887 12.529827,18.7206796 L11.843785,20.5255733 L9.21484436,20.5255733 L8.48435608,18.6037466 C7.68647966,18.3731498 6.93738509,18.0229332 6.25658317,17.5731346 L4.37704745,18.4173644 L2.51810567,16.5584226 L3.45281363,14.4774524 C3.10023373,13.8130724 2.8313541,13.0950935 2.66072331,12.3384571 L0.539858899,11.5323144 L0.539858899,8.90337374 L2.76828685,8.05634605 C2.95978338,7.37165378 3.23271263,6.72234417 3.57561732,6.12018398 L2.57999239,3.90359229 L4.43893416,2.04465052 L6.61683295,3.02289579 C7.19047526,2.68497213 7.80722621,2.4154925 8.45652582,2.22530212 L9.30236539,0 L11.9313061,0 L12.7498383,2.15345986 Z" id="Combined-Shape"></path>
                    <ellipse id="Oval-2-Copy" cx="10.7878835" cy="10.5130985" rx="4.14337864" ry="4.25530179"></ellipse>
                </g>
            </g>
        </g>
    </g>
</svg>