<?xml version="1.0" encoding="UTF-8"?>
<svg width="16px" height="16px" viewBox="0 0 16 16" version="1.1" xmlns="http://www.w3.org/2000/svg" xmlns:xlink="http://www.w3.org/1999/xlink">
    <!-- Generator: Sketch 48.2 (47327) - http://www.bohemiancoding.com/sketch -->
    <title>Group</title>
    <desc>Created with Sketch.</desc>
    <defs></defs>
    <g id="Side-nav" stroke="none" stroke-width="1" fill="none" fill-rule="evenodd" transform="translate(-28.000000, -28.000000)">
        <g id="Group" transform="translate(23.500000, 23.500000)">
            <path d="M20.1735859,10.0120174 C19.5289654,7.87145137 18.2094099,6.2655636 16.1273087,5.29851017 C14.2552667,4.42812348 12.2933126,4.28242849 10.3011234,4.7972638 C7.70835707,5.46713649 5.92781415,7.04623244 4.99377707,9.50104256 C4.57564271,10.5999704 4.46517715,11.7462279 4.5089031,12.9115563 C4.54588366,13.8992247 4.72665992,14.8567813 5.10686142,15.7755786 C5.78949413,17.4243178 6.91057671,18.7031447 8.53351575,19.534386 C10.510389,20.5468388 12.5972516,20.7552282 14.7453782,20.1966921 C17.0822168,19.5898998 18.7738,18.2061448 19.7737832,16.0476661 C20.2988913,14.9144571 20.503951,13.7189397 20.499745,12.3996549 C20.5054588,11.6457779 20.4157055,10.8175478 20.1735859,10.0120174 Z" id="Shape" fill="#00B3F1"></path>
            <rect id="Rectangle-2" x="0" y="0" width="25" height="25"></rect>
        </g>
    </g>
</svg>