<?xml version="1.0" encoding="UTF-8"?>
<svg width="24px" height="20px" viewBox="0 0 24 20" version="1.1" xmlns="http://www.w3.org/2000/svg" xmlns:xlink="http://www.w3.org/1999/xlink">
    <!-- Generator: Sketch 48.2 (47327) - http://www.bohemiancoding.com/sketch -->
    <title>Reporting</title>
    <desc>Created with Sketch.</desc>
    <defs></defs>
    <g id="Side-nav" stroke="none" stroke-width="1" fill="none" fill-rule="evenodd" transform="translate(-23.000000, -379.000000)">
        <g id="Reporting" transform="translate(22.000000, 376.000000)">
            <g id="reporting-icon" transform="translate(1.000000, 3.000000)">
                <path d="M18.3941116,2.38765452 C18.3760893,2.50580643 18.3667429,2.62681173 18.3667429,2.75 C18.3667429,3.07208397 18.4306344,3.37924528 18.5464347,3.65950121 C17.8655421,4.48732993 17.5,5.68383646 17.5,7 C17.5,8.46433444 17.2977091,9.77486932 16.862118,10.7490344 C16.8038998,10.6749097 16.7413755,10.6036903 16.6747002,10.5357689 C16.4870213,10.3445821 16.2726081,10.1857947 16.0401508,10.063028 C16.3409581,9.27258191 16.5,8.20752232 16.5,7 C16.5,5.11406882 17.1575368,3.38536042 18.3941116,2.38765452 Z M10.2715877,6.76544123 C10.6375979,7.25043631 10.9701929,7.890461 11.3307976,8.71165075 C11.3499765,8.75533158 11.3499765,8.75533158 11.369105,8.79888323 C11.8257084,9.83817345 12.2076806,10.5166679 12.6820393,10.9337077 C12.4905652,11.2270608 12.3573324,11.5618985 12.2987356,11.9218186 C11.5710933,11.4109807 11.0403062,10.5366113 10.4535679,9.20111677 C10.4343413,9.15734171 10.4343413,9.15734171 10.4151873,9.11371775 C10.1888017,8.59817923 9.98410494,8.17531092 9.78004727,7.8314502 C10.0196527,7.52431634 10.1910818,7.1613977 10.2715877,6.76544123 Z M5.18029523,6.11426509 C5.17795922,6.15921451 5.1767767,6.20446916 5.1767767,6.25 C5.1767767,6.63386908 5.26083189,6.99810602 5.4115409,7.32530943 C4.7654964,8.10966636 4.40778973,9.5272928 4.05859659,11.8841298 C3.90222176,12.9395629 3.88103528,13.0791693 3.80624844,13.5220323 C3.34401466,16.2592287 2.68590581,18.021201 1.35355339,19.3535534 L0.646446609,18.6464466 C1.79442044,17.4984728 2.38974254,15.9046011 2.82020929,13.3555187 C2.89336529,12.9223129 2.91428732,12.7844492 3.06939508,11.737568 C3.52088793,8.69027138 4.04053755,6.94655652 5.18029523,6.11426509 Z" id="Combined-Shape" fill="#00B3F1" fill-rule="nonzero"></path>
                <path d="M16.4245117,12.2437299 C16.4425889,13.1470022 15.7308742,13.8968438 14.8278874,13.9258864 C13.9249005,13.9549291 13.1664725,13.2523713 13.1264687,12.3498043 C13.1066306,11.9022154 13.2696592,11.4658026 13.5780939,11.1408449 C13.8865286,10.8158872 14.313848,10.6303265 14.7618628,10.6268011 C15.6652886,10.619692 16.4064345,11.3404576 16.4245117,12.2437299 Z" id="Shape" fill="#00B3F1"></path>
                <polyline id="Path-13" stroke="#00B3F1" stroke-linecap="round" points="0.5 0.5 0.5 19.5 23.5 19.5"></polyline>
                <path d="M9.42676056,6.27676058 C9.42676056,7.18803041 8.68803041,7.92676056 7.77676058,7.92676056 C6.86549076,7.92676056 6.12676061,7.18803041 6.12676061,6.27676058 C6.12676061,5.36549076 6.86549076,4.62676061 7.77676058,4.62676061 C8.68803041,4.62676061 9.42676056,5.36549076 9.42676056,6.27676058 Z" id="Shape" fill="#00B3F1"></path>
                <path d="M22.3011154,2.14531804 C22.5565003,2.76187177 22.4153354,3.4715558 21.9434456,3.94344559 C21.4715558,4.41533538 20.7618718,4.55650031 20.145318,4.3011154 C19.5287643,4.04573048 19.1267606,3.44408941 19.1267606,2.77673647 C19.1267606,1.86547996 19.86548,1.12676061 20.7767365,1.12676061 C21.4440894,1.12676061 22.0457305,1.52876432 22.3011154,2.14531804 Z" id="Combined-Shape" fill="#00B3F1"></path>
            </g>
        </g>
    </g>
</svg>